<svg width="367" height="62" viewBox="0 0 367 62" fill="none" xmlns="http://www.w3.org/2000/svg">
<path d="M88.536 14.744C90.504 14.744 92.224 14.96 93.696 15.392C95.168 15.824 96.352 16.28 97.248 16.76C98.144 17.24 98.688 17.56 98.88 17.72L95.424 23.504C95.168 23.312 94.728 23.032 94.104 22.664C93.496 22.296 92.768 21.968 91.92 21.68C91.088 21.392 90.216 21.248 89.304 21.248C88.072 21.248 87.072 21.472 86.304 21.92C85.552 22.352 85.176 23 85.176 23.864C85.176 24.456 85.376 24.992 85.776 25.472C86.192 25.936 86.816 26.384 87.648 26.816C88.496 27.232 89.568 27.688 90.864 28.184C92.048 28.616 93.16 29.128 94.2 29.72C95.24 30.312 96.152 31.016 96.936 31.832C97.736 32.632 98.368 33.56 98.832 34.616C99.296 35.672 99.528 36.872 99.528 38.216C99.528 39.816 99.2 41.208 98.544 42.392C97.888 43.56 96.992 44.528 95.856 45.296C94.736 46.064 93.456 46.632 92.016 47C90.592 47.384 89.112 47.576 87.576 47.576C85.4 47.576 83.448 47.328 81.72 46.832C80.008 46.336 78.624 45.8 77.568 45.224C76.512 44.648 75.88 44.264 75.672 44.072L79.248 38.048C79.44 38.192 79.808 38.424 80.352 38.744C80.912 39.064 81.592 39.4 82.392 39.752C83.192 40.088 84.04 40.376 84.936 40.616C85.848 40.856 86.744 40.976 87.624 40.976C89.096 40.976 90.2 40.696 90.936 40.136C91.672 39.56 92.04 38.808 92.04 37.88C92.04 37.192 91.808 36.576 91.344 36.032C90.88 35.488 90.184 34.976 89.256 34.496C88.328 34 87.168 33.48 85.776 32.936C84.384 32.376 83.08 31.696 81.864 30.896C80.664 30.096 79.688 29.096 78.936 27.896C78.184 26.696 77.808 25.208 77.808 23.432C77.808 21.656 78.304 20.12 79.296 18.824C80.304 17.512 81.624 16.504 83.256 15.8C84.904 15.096 86.664 14.744 88.536 14.744ZM109.683 38.696C109.731 39.4 109.955 40.024 110.355 40.568C110.755 41.112 111.307 41.544 112.011 41.864C112.731 42.168 113.579 42.32 114.555 42.32C115.483 42.32 116.315 42.224 117.051 42.032C117.803 41.84 118.451 41.6 118.995 41.312C119.555 41.024 119.987 40.728 120.291 40.424L123.123 44.936C122.723 45.368 122.155 45.792 121.419 46.208C120.699 46.608 119.747 46.936 118.563 47.192C117.379 47.448 115.883 47.576 114.075 47.576C111.899 47.576 109.963 47.168 108.267 46.352C106.571 45.536 105.235 44.336 104.259 42.752C103.283 41.168 102.795 39.232 102.795 36.944C102.795 35.024 103.211 33.296 104.043 31.76C104.891 30.208 106.115 28.984 107.715 28.088C109.315 27.176 111.243 26.72 113.499 26.72C115.643 26.72 117.499 27.112 119.067 27.896C120.651 28.68 121.867 29.848 122.715 31.4C123.579 32.936 124.011 34.856 124.011 37.16C124.011 37.288 124.003 37.544 123.987 37.928C123.987 38.312 123.971 38.568 123.939 38.696H109.683ZM117.147 34.88C117.131 34.368 116.995 33.864 116.739 33.368C116.483 32.856 116.099 32.44 115.587 32.12C115.075 31.784 114.419 31.616 113.619 31.616C112.819 31.616 112.139 31.776 111.579 32.096C111.035 32.4 110.619 32.8 110.331 33.296C110.043 33.792 109.883 34.32 109.851 34.88H117.147ZM143.07 47V43.808C142.926 44.128 142.558 44.592 141.966 45.2C141.39 45.808 140.622 46.36 139.662 46.856C138.702 47.336 137.582 47.576 136.302 47.576C134.382 47.576 132.702 47.112 131.262 46.184C129.822 45.24 128.702 43.984 127.902 42.416C127.102 40.832 126.702 39.08 126.702 37.16C126.702 35.24 127.102 33.496 127.902 31.928C128.702 30.344 129.822 29.08 131.262 28.136C132.702 27.192 134.382 26.72 136.302 26.72C137.534 26.72 138.614 26.92 139.542 27.32C140.47 27.704 141.222 28.168 141.798 28.712C142.374 29.24 142.774 29.728 142.998 30.176V27.296H150.246V47H143.07ZM133.854 37.16C133.854 38.056 134.062 38.864 134.478 39.584C134.894 40.288 135.446 40.84 136.134 41.24C136.838 41.64 137.614 41.84 138.462 41.84C139.342 41.84 140.118 41.64 140.79 41.24C141.462 40.84 141.99 40.288 142.374 39.584C142.774 38.864 142.974 38.056 142.974 37.16C142.974 36.264 142.774 35.464 142.374 34.76C141.99 34.04 141.462 33.48 140.79 33.08C140.118 32.664 139.342 32.456 138.462 32.456C137.614 32.456 136.838 32.664 136.134 33.08C135.446 33.48 134.894 34.04 134.478 34.76C134.062 35.464 133.854 36.264 133.854 37.16ZM161.547 47H154.251V27.296H161.547V30.344H161.427C161.555 29.976 161.867 29.512 162.363 28.952C162.859 28.376 163.555 27.864 164.451 27.416C165.347 26.952 166.443 26.72 167.739 26.72C168.651 26.72 169.491 26.864 170.259 27.152C171.027 27.424 171.587 27.688 171.939 27.944L169.107 33.872C168.883 33.6 168.483 33.32 167.907 33.032C167.347 32.728 166.643 32.576 165.795 32.576C164.819 32.576 164.011 32.824 163.371 33.32C162.747 33.816 162.283 34.416 161.979 35.12C161.691 35.824 161.547 36.488 161.547 37.112V47ZM184.071 41.84C184.983 41.84 185.735 41.688 186.327 41.384C186.919 41.064 187.319 40.808 187.527 40.616L190.863 45.56C190.607 45.768 190.167 46.04 189.543 46.376C188.919 46.696 188.135 46.976 187.191 47.216C186.263 47.456 185.199 47.576 183.999 47.576C181.743 47.576 179.759 47.152 178.047 46.304C176.335 45.44 174.999 44.224 174.039 42.656C173.095 41.088 172.623 39.248 172.623 37.136C172.623 35.008 173.095 33.168 174.039 31.616C174.999 30.064 176.335 28.864 178.047 28.016C179.759 27.152 181.743 26.72 183.999 26.72C185.183 26.72 186.239 26.848 187.167 27.104C188.111 27.344 188.903 27.624 189.543 27.944C190.183 28.248 190.631 28.512 190.887 28.736L187.479 33.728C187.367 33.616 187.159 33.456 186.855 33.248C186.567 33.04 186.191 32.856 185.727 32.696C185.263 32.536 184.711 32.456 184.071 32.456C183.287 32.456 182.551 32.656 181.863 33.056C181.191 33.456 180.647 34.008 180.231 34.712C179.815 35.416 179.607 36.224 179.607 37.136C179.607 38.048 179.815 38.864 180.231 39.584C180.647 40.288 181.191 40.84 181.863 41.24C182.551 41.64 183.287 41.84 184.071 41.84ZM207.557 26.72C208.933 26.72 210.277 27 211.589 27.56C212.901 28.12 213.981 29.008 214.829 30.224C215.677 31.424 216.101 33.008 216.101 34.976V47H208.805V36.176C208.805 34.768 208.485 33.712 207.845 33.008C207.221 32.288 206.365 31.928 205.277 31.928C204.557 31.928 203.869 32.12 203.213 32.504C202.557 32.872 202.021 33.4 201.605 34.088C201.205 34.76 201.005 35.536 201.005 36.416V47H193.685V13.976H201.005V30.2C201.181 29.672 201.573 29.144 202.181 28.616C202.805 28.072 203.581 27.624 204.509 27.272C205.453 26.904 206.469 26.72 207.557 26.72ZM232.942 15.32H245.854C247.694 15.32 249.334 15.704 250.774 16.472C252.214 17.24 253.35 18.352 254.182 19.808C255.03 21.248 255.454 22.968 255.454 24.968C255.454 26.968 255.094 28.608 254.374 29.888C253.67 31.152 252.822 32.104 251.83 32.744C250.838 33.368 249.918 33.744 249.07 33.872L256.774 47H248.71L241.846 34.424H240.118V47H232.942V15.32ZM240.118 29.456H243.286C244.566 29.456 245.686 29.144 246.646 28.52C247.606 27.896 248.086 26.792 248.086 25.208C248.086 23.624 247.614 22.528 246.67 21.92C245.726 21.296 244.614 20.984 243.334 20.984H240.118V29.456ZM267.324 38.696C267.372 39.4 267.596 40.024 267.996 40.568C268.396 41.112 268.948 41.544 269.652 41.864C270.372 42.168 271.22 42.32 272.196 42.32C273.124 42.32 273.956 42.224 274.692 42.032C275.444 41.84 276.092 41.6 276.636 41.312C277.196 41.024 277.628 40.728 277.932 40.424L280.764 44.936C280.364 45.368 279.796 45.792 279.06 46.208C278.34 46.608 277.388 46.936 276.204 47.192C275.02 47.448 273.524 47.576 271.716 47.576C269.54 47.576 267.604 47.168 265.908 46.352C264.212 45.536 262.876 44.336 261.9 42.752C260.924 41.168 260.436 39.232 260.436 36.944C260.436 35.024 260.852 33.296 261.684 31.76C262.532 30.208 263.756 28.984 265.356 28.088C266.956 27.176 268.884 26.72 271.14 26.72C273.284 26.72 275.14 27.112 276.708 27.896C278.292 28.68 279.508 29.848 280.356 31.4C281.22 32.936 281.652 34.856 281.652 37.16C281.652 37.288 281.644 37.544 281.628 37.928C281.628 38.312 281.612 38.568 281.58 38.696H267.324ZM274.788 34.88C274.772 34.368 274.636 33.864 274.38 33.368C274.124 32.856 273.74 32.44 273.228 32.12C272.716 31.784 272.06 31.616 271.26 31.616C270.46 31.616 269.78 31.776 269.22 32.096C268.676 32.4 268.26 32.8 267.972 33.296C267.684 33.792 267.524 34.32 267.492 34.88H274.788ZM294.254 26.72C295.55 26.72 296.734 26.832 297.806 27.056C298.878 27.264 299.774 27.504 300.494 27.776C301.23 28.048 301.702 28.272 301.91 28.448L299.534 32.744C299.23 32.52 298.662 32.232 297.83 31.88C297.014 31.528 296.102 31.352 295.094 31.352C294.326 31.352 293.678 31.472 293.15 31.712C292.622 31.936 292.358 32.296 292.358 32.792C292.358 33.288 292.646 33.688 293.222 33.992C293.814 34.28 294.662 34.536 295.766 34.76C296.726 34.952 297.702 35.256 298.694 35.672C299.686 36.088 300.51 36.704 301.166 37.52C301.838 38.32 302.174 39.392 302.174 40.736C302.174 42.112 301.878 43.248 301.286 44.144C300.694 45.04 299.91 45.736 298.934 46.232C297.958 46.728 296.902 47.072 295.766 47.264C294.63 47.472 293.526 47.576 292.454 47.576C290.95 47.576 289.638 47.44 288.518 47.168C287.414 46.896 286.518 46.584 285.83 46.232C285.142 45.88 284.662 45.6 284.39 45.392L286.742 40.592C287.158 40.944 287.838 41.344 288.782 41.792C289.726 42.224 290.726 42.44 291.782 42.44C292.806 42.44 293.598 42.288 294.158 41.984C294.718 41.68 294.998 41.28 294.998 40.784C294.998 40.384 294.862 40.064 294.59 39.824C294.318 39.584 293.934 39.376 293.438 39.2C292.942 39.024 292.342 38.864 291.638 38.72C290.998 38.592 290.318 38.392 289.598 38.12C288.878 37.848 288.198 37.48 287.558 37.016C286.918 36.536 286.398 35.936 285.998 35.216C285.598 34.496 285.398 33.624 285.398 32.6C285.398 31.288 285.822 30.2 286.67 29.336C287.518 28.472 288.614 27.824 289.958 27.392C291.302 26.944 292.734 26.72 294.254 26.72ZM312.959 36.416C312.959 37.984 313.255 39.24 313.847 40.184C314.439 41.112 315.431 41.576 316.823 41.576C318.247 41.576 319.247 41.112 319.823 40.184C320.415 39.24 320.711 37.984 320.711 36.416V27.296H327.911V37.184C327.911 39.296 327.471 41.136 326.591 42.704C325.727 44.256 324.471 45.456 322.823 46.304C321.175 47.152 319.175 47.576 316.823 47.576C314.487 47.576 312.495 47.152 310.847 46.304C309.199 45.456 307.943 44.256 307.079 42.704C306.215 41.136 305.783 39.296 305.783 37.184V27.296H312.959V36.416ZM339.64 47H332.32V13.976H339.64V47ZM342.664 27.296H346.024V19.208H353.248V27.296H357.664V33.296H353.248V38.792C353.248 39.608 353.368 40.272 353.608 40.784C353.848 41.28 354.288 41.528 354.928 41.528C355.36 41.528 355.728 41.432 356.032 41.24C356.336 41.048 356.52 40.92 356.584 40.856L359.08 46.04C358.968 46.136 358.616 46.312 358.024 46.568C357.448 46.824 356.712 47.056 355.816 47.264C354.92 47.472 353.92 47.576 352.816 47.576C350.848 47.576 349.224 47.024 347.944 45.92C346.664 44.8 346.024 43.08 346.024 40.76V33.296H342.664V27.296Z" fill="black"/>
<path d="M7.6459 0C7.11068 0 6.65193 0.076459 6.19318 0.229377C3.21128 0.841049 0.841049 3.21128 0.229377 6.19318C0 6.65193 0 7.11068 0 7.6459V49.6983C0 56.0444 5.12275 61.1672 11.4688 61.1672H53.5213V53.5213H11.4688C9.32799 53.5213 7.6459 51.8392 7.6459 49.6983C7.6459 47.5575 9.32799 45.8754 11.4688 45.8754H53.5213V3.82295C53.5213 1.6821 51.8392 0 49.6983 0H45.8754V22.9377L38.2295 15.2918L30.5836 22.9377V0H7.6459Z" fill="black"/>
</svg>
