<svg width="93" height="93" viewBox="0 0 93 93" fill="none" xmlns="http://www.w3.org/2000/svg">
<path d="M39.9207 0.114059C17.9073 0.114059 0 18.0213 0 40.0347C0 62.0481 17.9073 79.9554 39.9207 79.9554C46.6502 79.9554 53.2656 78.3586 58.8545 75.279C59.3021 75.8177 59.7985 76.3141 60.3372 76.7617L71.7431 88.1676C72.7963 89.3527 74.0806 90.31 75.5172 90.9808C76.9537 91.6516 78.5122 92.0216 80.097 92.0683C81.6817 92.1149 83.2593 91.8372 84.7328 91.2521C86.2063 90.667 87.5447 89.7869 88.6658 88.6658C89.7869 87.5447 90.667 86.2063 91.2521 84.7328C91.8372 83.2593 92.1149 81.6817 92.0683 80.097C92.0216 78.5122 91.6516 76.9537 90.9808 75.5172C90.31 74.0806 89.3527 72.7963 88.1677 71.7431L76.7617 60.3372C76.2061 59.7814 75.5946 59.2845 74.9368 58.8545C78.0164 53.2656 79.9554 46.7642 79.9554 39.9207C79.9554 17.9073 62.0481 0 40.0347 0L39.9207 0.114059ZM39.9207 11.52C55.7749 11.52 68.4354 24.1805 68.4354 40.0347C68.4354 47.5626 65.698 54.5202 60.9075 59.6529C60.7935 59.7669 60.6794 59.881 60.5654 59.9951C60.0266 60.4427 59.5303 60.9391 59.0826 61.4778C54.064 66.0402 47.2204 68.6636 39.8066 68.6636C23.9524 68.6636 11.2918 56.003 11.2918 40.1488C11.2918 24.2946 23.9524 11.634 39.8066 11.634L39.9207 11.52Z" fill="#C7C6C8"/>
</svg>
