<svg width="220" height="277" viewBox="0 0 220 277" fill="none" xmlns="http://www.w3.org/2000/svg">
<rect width="220" height="277" fill="#D9D9D9"/>
<path d="M91.6741 90V132H128.696V111H107.541V90H91.6741ZM112.83 90V105.75H128.696L112.83 90Z" fill="black"/>
<path d="M59.775 169.106V181.183H61.517V169.106H59.775ZM55.03 169.951C53.21 169.951 51.871 171.615 51.871 174.241C51.871 176.893 53.21 178.557 55.03 178.557C56.85 178.557 58.189 176.893 58.189 174.241C58.189 171.615 56.85 169.951 55.03 169.951ZM55.03 171.524C55.927 171.524 56.525 172.473 56.525 174.241C56.525 176.035 55.927 176.997 55.03 176.997C54.133 176.997 53.522 176.035 53.522 174.241C53.522 172.473 54.133 171.524 55.03 171.524ZM64.077 170.198V178.297H69.862V170.198H64.077ZM68.172 171.55V176.932H65.78V171.55H68.172ZM71.734 169.106V181.183H73.476V169.106H71.734ZM78.337 171.017V172.369C78.337 174.41 77.362 176.633 75.347 177.53L76.322 178.895C78.584 177.868 79.715 175.151 79.715 172.369V171.017H78.337ZM78.727 171.017V172.369C78.727 175.047 79.845 177.608 82.133 178.596L83.069 177.231C81.054 176.399 80.092 174.319 80.092 172.369V171.017H78.727ZM75.828 170.276V171.693H82.575V170.276H75.828ZM83.693 169.119V181.157H85.435V169.119H83.693ZM95.093 169.106V181.144H96.835V169.106H95.093ZM96.38 173.708V175.125H98.499V173.708H96.38ZM91.934 170.354V170.653C91.934 173.916 90.439 176.126 87.28 177.764L88.242 179.077C92.246 177.062 93.624 173.968 93.624 170.354H91.934ZM87.943 170.354V171.745H92.818V170.354H87.943ZM107.047 170.393V170.679C107.047 171.719 105.89 172.902 103.277 173.188L103.901 174.553C106.969 174.202 108.581 172.59 108.581 170.679V170.393H107.047ZM107.892 170.393V170.679C107.892 172.603 109.517 174.202 112.572 174.553L113.209 173.188C110.596 172.902 109.426 171.732 109.426 170.679V170.393H107.892ZM103.784 169.639V170.991H112.702V169.639H103.784ZM102.796 175.112V176.49H113.69V175.112H102.796ZM107.515 175.983V178.518H109.257V175.983H107.515ZM104.057 179.571V180.949H112.494V179.571H104.057ZM104.057 177.491V180.052H105.773V177.491H104.057ZM123.01 169.106V181.183H124.752V169.106H123.01ZM115.353 170.068V178.375H121.268V170.068H119.552V172.993H117.069V170.068H115.353ZM117.069 174.332H119.552V176.984H117.069V174.332ZM134.731 175.164V177.283H136.46V175.164H134.731ZM130.155 174.592V175.957H141.036V174.592H130.155ZM135.576 176.815C132.963 176.815 131.39 177.595 131.39 178.986C131.39 180.377 132.963 181.157 135.576 181.157C138.176 181.157 139.749 180.377 139.749 178.986C139.749 177.595 138.176 176.815 135.576 176.815ZM135.576 178.115C137.188 178.115 138.007 178.388 138.007 178.986C138.007 179.571 137.188 179.857 135.576 179.857C133.964 179.857 133.145 179.571 133.145 178.986C133.145 178.388 133.964 178.115 135.576 178.115ZM134.406 170.25V170.549C134.406 171.485 133.249 172.551 130.61 172.772L131.208 174.124C134.315 173.838 135.94 172.356 135.94 170.549V170.25H134.406ZM135.251 170.25V170.549C135.251 172.369 136.889 173.838 139.983 174.124L140.581 172.772C137.929 172.551 136.785 171.498 136.785 170.549V170.25H135.251ZM131.143 169.613V170.978H140.061V169.613H131.143ZM150.382 169.119V175.593H152.124V169.119H150.382ZM144.116 176.113V181.027H152.124V176.113H150.408V177.231H145.819V176.113H144.116ZM145.819 178.557H150.408V179.649H145.819V178.557ZM145.572 169.613C143.7 169.613 142.296 170.796 142.296 172.46C142.296 174.124 143.7 175.307 145.572 175.307C147.444 175.307 148.835 174.124 148.835 172.46C148.835 170.796 147.444 169.613 145.572 169.613ZM145.572 171.043C146.482 171.043 147.145 171.576 147.145 172.46C147.145 173.357 146.482 173.877 145.572 173.877C144.649 173.877 143.986 173.357 143.986 172.46C143.986 171.576 144.649 171.043 145.572 171.043ZM162.406 169.119V181.157H164.135V169.119H162.406ZM154.71 170.263V177.738H156.426V170.263H154.71ZM154.71 176.724V178.193H155.776C157.609 178.193 159.598 178.063 161.665 177.634L161.47 176.204C159.481 176.594 157.531 176.724 155.776 176.724H154.71ZM173.728 169.106V181.183H175.47V169.106H173.728ZM175.08 173.565V174.982H177.212V173.565H175.08ZM166.5 176.854V178.284H167.514C169.607 178.284 171.258 178.232 173.078 177.907L172.909 176.477C171.141 176.789 169.542 176.854 167.514 176.854H166.5ZM166.5 170.224V177.543H168.216V171.615H172.116V170.224H166.5ZM179.343 180.156C179.022 180.156 178.745 180.041 178.511 179.811C178.281 179.577 178.166 179.3 178.166 178.979C178.166 178.65 178.281 178.371 178.511 178.141C178.745 177.907 179.022 177.79 179.343 177.79C179.672 177.79 179.952 177.907 180.181 178.141C180.411 178.371 180.526 178.65 180.526 178.979C180.526 179.3 180.411 179.577 180.181 179.811C179.952 180.041 179.672 180.156 179.343 180.156Z" fill="black"/>
</svg>
